<svg xmlns="http://www.w3.org/2000/svg" xmlns:xlink="http://www.w3.org/1999/xlink" width="1009" height="235" viewBox="0 0 1009 235">
    <defs>
        <path id="a" d="M0 230.662h1009V0H0z"/>
    </defs>
    <g fill="none" fill-rule="evenodd">
        <path fill="#0B2837" d="M285.745 74.552c24.23 0 35.708 13.846 35.708 13.846l-10.202 15.85s-9.656-10.02-24.23-10.02c-17.125 0-28.238 12.934-28.238 28.784 0 15.667 11.295 29.149 28.966 29.149 15.66 0 27.327-11.842 27.327-11.842l8.927 16.396s-13.299 15.121-38.258 15.121c-30.788 0-50.464-21.68-50.464-48.642 0-26.416 19.676-48.642 50.464-48.642M403.795 152.162c14.94 0 27.51-11.66 27.51-28.967 0-17.125-12.57-28.966-27.51-28.966-15.12 0-27.691 11.841-27.691 28.966 0 17.308 12.57 28.967 27.691 28.967m-.175-77.609c28.413 0 51.186 20.222 51.186 48.642 0 28.603-22.773 48.643-51.01 48.643-28.42 0-51.193-20.04-51.193-48.643 0-28.42 22.772-48.642 51.017-48.642M486.236 40.304h22.948v97.873c0 10.3 3.469 12.872 9.48 12.872a35.37 35.37 0 0 0 3.462-.182v20.418s-3.461.546-7.287.546c-12.753 0-28.603-3.307-28.603-30.165V40.304zM604.746 152.162c14.938 0 27.509-11.66 27.509-28.967 0-17.125-12.57-28.966-27.51-28.966-15.12 0-27.69 11.841-27.69 28.966 0 17.308 12.57 28.967 27.69 28.967m-.182-77.609c28.414 0 51.186 20.222 51.186 48.642 0 28.603-22.772 48.643-51.003 48.643-28.428 0-51.2-20.04-51.2-48.643 0-28.42 22.772-48.642 51.017-48.642M687.18 76.738h22.226v10.749c0 3.461-.364 6.376-.364 6.376h.364c4.008-7.834 14.203-19.311 32.975-19.311 20.58 0 32.239 10.748 32.239 35.343v59.755h-22.948v-55.018c0-11.296-2.915-18.947-14.757-18.947-12.388 0-21.504 7.833-24.958 18.947-1.276 3.825-1.64 8.015-1.64 12.388v42.63H687.18V76.738z"/>
        <mask id="b" fill="#fff">
            <use xlink:href="#a"/>
        </mask>
        <path fill="#0B2837" d="M806.05 169.652h23.138V76.74H806.05v92.912zm0-108.762H829V40.304H806.05V60.89zM897.963 153.801c12.2 0 20.944-13.117 20.944-24.405v-2.186h-4.001c-11.842 0-30.97 1.632-30.97 14.567 0 6.194 4.547 12.024 14.027 12.024m17.665-42.448h3.104v-1.275c0-12.206-7.652-16.397-17.854-16.397-13.3 0-25.512 8.927-25.512 8.927L866.62 86.03s14.4-11.478 36.443-11.478c24.412 0 38.615 13.482 38.615 36.983v58.116h-21.315v-7.652c0-3.643.372-6.558.372-6.558h-.372c.19 0-7.098 16.396-28.23 16.396-16.58 0-31.518-10.384-31.518-28.967 0-29.513 39.89-31.517 55.012-31.517M973.11 40.304h22.954v97.873c0 10.3 3.469 12.872 9.474 12.872 1.822 0 3.461-.182 3.461-.182v20.418s-3.461.546-7.287.546c-12.753 0-28.602-3.307-28.602-30.165V40.304z" mask="url(#b)"/>
        <path fill="#CD2026" d="M95.99 46.746v47.872c13.081 9.256 21.651 24.503 21.651 41.719 0 28.182-22.927 51.109-51.109 51.109-.574 0-1.142-.028-1.71-.05v43.24c.568.014 1.143.028 1.71.028 52.013 0 94.328-42.322 94.328-94.327 0-41.72-27.243-77.182-64.87-89.59" mask="url(#b)"/>
        <path fill="#0B2837" d="M94.327 3.538C42.314 3.538-.001 45.853-.001 97.865c0 41.727 27.25 77.189 64.87 89.591V139.592c-13.081-9.27-21.65-24.51-21.65-41.727 0-28.182 22.926-51.108 51.108-51.108.574 0 1.142.028 1.71.042V3.559c-.568-.007-1.143-.021-1.71-.021" mask="url(#b)"/>
        <path fill="#092736" d="M563.518 225.506h6.411c.743 0 1.318-.203 1.745-.603.428-.406.645-.974.645-1.71v-1.247c0-.728-.217-1.296-.645-1.702-.427-.407-1.002-.603-1.745-.603h-6.41v5.865zm0-10.412h5.536c.735 0 1.31-.21 1.723-.624.414-.413.624-.988.624-1.724v-1.1c0-.736-.21-1.31-.624-1.724-.413-.413-.988-.623-1.723-.623h-5.536v5.795zm-5.577-10.49h12.437c2.116 0 3.777.603 4.96 1.801 1.185 1.198 1.78 2.782 1.78 4.765 0 .98-.126 1.807-.385 2.494-.252.687-.595 1.247-1.03 1.689-.42.434-.932.764-1.5.967a6.146 6.146 0 0 1-1.85.35v.224c.61 0 1.248.105 1.92.323a5.39 5.39 0 0 1 1.858 1.05c.56.477 1.03 1.094 1.408 1.85.385.757.568 1.69.568 2.782a8.148 8.148 0 0 1-.49 2.845 7.141 7.141 0 0 1-1.381 2.326 6.433 6.433 0 0 1-2.081 1.563 6.19 6.19 0 0 1-2.642.568h-13.572v-25.597zM597.246 225.69c1.689 0 3.006-.553 3.938-1.653.946-1.1 1.422-2.677 1.422-4.73v-3.812c0-2.053-.476-3.63-1.422-4.73-.932-1.1-2.25-1.646-3.938-1.646-1.682 0-2.999.546-3.938 1.646-.939 1.1-1.415 2.677-1.415 4.73v3.812c0 2.053.476 3.63 1.415 4.73.939 1.1 2.256 1.653 3.938 1.653m0 4.947c-1.682 0-3.223-.28-4.618-.84a9.411 9.411 0 0 1-3.56-2.51c-.98-1.113-1.73-2.494-2.27-4.147-.532-1.647-.805-3.56-.805-5.739 0-2.172.273-4.085.806-5.739.54-1.646 1.289-3.027 2.27-4.14a9.335 9.335 0 0 1 3.56-2.51c1.394-.567 2.935-.847 4.617-.847 1.689 0 3.23.28 4.618.848a9.282 9.282 0 0 1 3.56 2.508c.98 1.114 1.737 2.495 2.27 4.141.539 1.654.805 3.567.805 5.739 0 2.18-.266 4.092-.806 5.739-.532 1.653-1.289 3.034-2.27 4.148a9.357 9.357 0 0 1-3.56 2.508c-1.387.56-2.928.841-4.617.841M625.555 218.098l-2.46-5.129h-.105v17.23h-5.241v-25.596h6.082l7 12.1 2.46 5.137h.112v-17.237h5.24v25.596h-6.088zM658.516 225.249c1.66 0 2.971-.463 3.924-1.395.953-.932 1.43-2.417 1.43-4.47v-3.959c0-2.053-.477-3.546-1.43-4.477-.953-.925-2.263-1.395-3.924-1.395h-4.07v15.696h4.07zm-9.641-20.643h9.641c1.682 0 3.23.267 4.618.806a9.345 9.345 0 0 1 3.56 2.403c.98 1.066 1.737 2.397 2.27 3.994.539 1.605.805 3.469.805 5.592 0 2.13-.266 3.994-.806 5.592-.532 1.604-1.289 2.935-2.27 4a9.329 9.329 0 0 1-3.56 2.397c-1.387.54-2.935.813-4.617.813h-9.641v-25.597zM687.296 230.638c-2.242 0-4.155-.386-5.717-1.156-1.563-.771-2.894-1.766-4.001-2.992l3.671-3.707c1.738 1.94 3.868 2.908 6.419 2.908 1.366 0 2.382-.28 3.04-.841.66-.554.989-1.29.989-2.214 0-.7-.19-1.29-.582-1.759-.4-.476-1.19-.792-2.39-.967l-2.529-.322c-2.711-.344-4.694-1.163-5.956-2.46-1.26-1.296-1.884-3.027-1.884-5.178 0-1.156.217-2.2.651-3.16a7.198 7.198 0 0 1 1.892-2.46c.82-.679 1.822-1.219 3.013-1.597 1.184-.378 2.53-.567 4.05-.567 1.927 0 3.623.308 5.094.917a10.24 10.24 0 0 1 3.77 2.684l-3.7 3.749a7.301 7.301 0 0 0-2.214-1.73c-.869-.45-1.969-.667-3.28-.667-1.253 0-2.185.21-2.795.645-.603.442-.91 1.044-.91 1.822 0 .869.237 1.5.714 1.885.476.385 1.254.665 2.326.834l2.53.406c2.641.413 4.596 1.226 5.864 2.438 1.276 1.213 1.913 2.936 1.913 5.158 0 1.226-.217 2.347-.665 3.377a7.178 7.178 0 0 1-1.92 2.641c-.841.736-1.892 1.304-3.14 1.71-1.24.4-2.662.603-4.253.603M728.51 208.31c-.659 0-1.22.182-1.668.554-.455.364-.68.876-.68 1.534v.147c0 .49.162.974.477 1.45.315.477.855 1.143 1.612 1.998.862-.512 1.506-1.03 1.948-1.556.441-.525.658-1.156.658-1.892v-.147c0-.658-.224-1.17-.68-1.534-.448-.372-1.008-.554-1.667-.554zm-.294 17.819c1.443 0 2.676-.344 3.7-1.03l-5.382-5.83c-.834.49-1.415.995-1.766 1.507a3.1 3.1 0 0 0-.511 1.758v.372c0 .925.329 1.695.988 2.305.665.617 1.653.918 2.97.918zm6.53 1.983c-.813.658-1.787 1.24-2.936 1.759-1.149.511-2.613.77-4.4.77-1.416 0-2.663-.175-3.735-.532-1.086-.358-1.99-.855-2.719-1.507a6.365 6.365 0 0 1-1.667-2.27c-.379-.869-.568-1.815-.568-2.838 0-.883.126-1.667.386-2.347a6.64 6.64 0 0 1 1.065-1.878 8.515 8.515 0 0 1 1.625-1.535c.638-.469 1.318-.917 2.053-1.359-.364-.392-.721-.82-1.058-1.282a10.916 10.916 0 0 1-.918-1.465 8.569 8.569 0 0 1-.644-1.618 6.185 6.185 0 0 1-.232-1.717c0-.834.169-1.618.526-2.368.357-.75.869-1.395 1.542-1.962.672-.56 1.478-1.002 2.417-1.317.939-.323 2.004-.477 3.174-.477 1.051 0 2.025.126 2.915.378.89.26 1.668.638 2.333 1.143a5.486 5.486 0 0 1 1.549 1.85c.385.735.574 1.562.574 2.494 0 .806-.133 1.541-.399 2.2a6.82 6.82 0 0 1-1.107 1.815 9.71 9.71 0 0 1-1.633 1.52c-.623.47-1.275.904-1.955 1.325l3.952 4.28c.323-.777.568-1.61.743-2.487.161-.882.28-1.751.322-2.606h6.131v4.512h-2.319c-.413 1.563-.96 2.922-1.647 4.071l5.101 5.536h-6.565l-1.906-2.088zM762.977 230.2v-4.436h3.3V209.04h-3.3v-4.436h12.171v4.436h-3.293v16.725h3.293v4.436zM792.195 218.098l-2.46-5.129h-.104v17.23h-5.241v-25.596h6.089l7 12.1 2.452 5.137h.112v-17.237h5.241v25.596h-6.082zM823.802 230.638c-2.243 0-4.156-.386-5.718-1.156-1.563-.771-2.894-1.766-4.001-2.992l3.672-3.707c1.737 1.94 3.867 2.908 6.418 2.908 1.366 0 2.382-.28 3.04-.841.66-.554.989-1.29.989-2.214 0-.7-.19-1.29-.582-1.759-.4-.476-1.19-.792-2.389-.967l-2.523-.322c-2.718-.344-4.701-1.163-5.962-2.46-1.262-1.296-1.885-3.027-1.885-5.178 0-1.156.217-2.2.651-3.16a7.113 7.113 0 0 1 1.892-2.46c.82-.679 1.822-1.219 3.013-1.597 1.184-.378 2.53-.567 4.05-.567 1.927 0 3.623.308 5.094.917a10.323 10.323 0 0 1 3.777 2.684l-3.707 3.749a7.301 7.301 0 0 0-2.214-1.73c-.869-.45-1.969-.667-3.286-.667-1.247 0-2.172.21-2.789.645-.602.442-.91 1.044-.91 1.822 0 .869.237 1.5.714 1.885.47.385 1.254.665 2.326.834l2.53.406c2.641.413 4.596 1.226 5.865 2.438 1.275 1.213 1.912 2.936 1.912 5.158 0 1.226-.217 2.347-.665 3.377a7.179 7.179 0 0 1-1.92 2.641c-.841.736-1.892 1.304-3.14 1.71-1.24.4-2.662.603-4.252.603M848.258 204.605V220.3c0 1.808.357 3.16 1.065 4.05.708.89 1.899 1.339 3.56 1.339 1.653 0 2.844-.449 3.552-1.339.715-.89 1.065-2.242 1.065-4.05v-15.695h5.43v15.107c0 1.885-.182 3.517-.532 4.89-.357 1.388-.939 2.523-1.745 3.413-.806.897-1.843 1.556-3.118 1.983-1.268.427-2.824.638-4.653.638-1.835 0-3.384-.21-4.66-.638-1.274-.427-2.311-1.086-3.11-1.983-.806-.89-1.388-2.025-1.745-3.412-.357-1.374-.532-3.006-.532-4.891v-15.107h5.423zM884.449 216.12c.827 0 1.485-.216 1.962-.644.476-.427.714-1.058.714-1.885v-1.611c0-.834-.238-1.465-.714-1.892-.477-.428-1.135-.645-1.962-.645h-5.865v6.678h5.865zm-5.865 14.078h-5.578V204.6h12.143c1.17 0 2.236.204 3.189.589a6.907 6.907 0 0 1 2.431 1.668c.673.721 1.191 1.583 1.563 2.585.364 1.002.546 2.116.546 3.335 0 1.738-.385 3.259-1.156 4.548-.764 1.296-1.934 2.242-3.496 2.824l5.023 10.048h-6.2l-4.471-9.39h-3.994v9.39zM912.018 209.668h-.175l-2.83 9.712h5.864l-2.859-9.712zm6.054 20.53l-1.829-6.082h-8.548l-1.836 6.082h-5.647l8.436-25.596h6.895l8.317 25.596h-5.788zM939.813 218.098l-2.459-5.129h-.105v17.23h-5.241v-25.596h6.082l7.007 12.1 2.452 5.137h.112v-17.237h5.241v25.596h-6.089zM973.473 230.638c-1.738 0-3.3-.273-4.695-.827a9.355 9.355 0 0 1-3.56-2.452c-.973-1.094-1.73-2.446-2.27-4.072-.532-1.625-.806-3.524-.806-5.703 0-2.144.274-4.057.806-5.739.54-1.667 1.297-3.076 2.27-4.211a9.524 9.524 0 0 1 3.56-2.586c1.394-.588 2.957-.882 4.695-.882 2.368 0 4.323.483 5.865 1.45 1.541.967 2.774 2.487 3.706 4.569l-4.8 2.487c-.35-1.072-.875-1.934-1.604-2.586-.715-.644-1.773-.967-3.167-.967-1.633 0-2.95.526-3.938 1.591-.995 1.065-1.486 2.614-1.486 4.639v4.106c0 2.032.49 3.58 1.486 4.638.988 1.065 2.305 1.598 3.938 1.598 1.366 0 2.466-.371 3.286-1.121a6.888 6.888 0 0 0 1.815-2.69l4.54 2.634c-.953 1.955-2.2 3.468-3.755 4.526-1.556 1.065-3.518 1.598-5.886 1.598M991.585 230.2v-25.597h17.412v4.954h-11.842v5.207h10.16v4.946h-10.16v5.536h11.842v4.954z" mask="url(#b)"/>
        <path fill="#0B2837" d="M150.601 16.813c1.38 0 2.081-.61 2.081-1.836v-1.24c0-1.22-.7-1.836-2.081-1.836h-3.16v4.912h3.16zm-3.16 9.158h-4.253V8.573h7.91c1.948 0 3.42.512 4.415 1.542.995 1.023 1.492 2.347 1.492 3.951 0 1.388-.287 2.516-.869 3.37a4.977 4.977 0 0 1-2.29 1.872l3.909 6.663h-4.66l-3.244-5.998h-2.41v5.998zm2.494 4.737c1.83 0 3.518-.315 5.08-.953a12.21 12.21 0 0 0 4.03-2.663 12.45 12.45 0 0 0 2.669-3.959c.638-1.5.96-3.132.96-4.904V16.07c0-1.73-.322-3.349-.96-4.876-.645-1.528-1.528-2.86-2.67-3.994a12.21 12.21 0 0 0-4.029-2.663c-1.562-.638-3.25-.96-5.08-.96-1.829 0-3.524.322-5.073.96A12.199 12.199 0 0 0 140.82 7.2a12.168 12.168 0 0 0-2.662 3.994c-.638 1.527-.953 3.146-.953 4.876v2.159c0 1.772.315 3.405.953 4.904.637 1.5 1.52 2.824 2.662 3.96a12.199 12.199 0 0 0 4.043 2.662c1.549.638 3.244.953 5.073.953zm0 3.58c-2.333 0-4.505-.42-6.53-1.282a15.927 15.927 0 0 1-5.29-3.622c-1.5-1.556-2.677-3.378-3.539-5.452-.855-2.08-1.29-4.344-1.29-6.783 0-2.445.435-4.708 1.29-6.79.862-2.08 2.04-3.895 3.539-5.444a15.824 15.824 0 0 1 5.29-3.622c2.025-.862 4.197-1.29 6.53-1.29 2.327 0 4.506.428 6.53 1.29a15.824 15.824 0 0 1 5.291 3.622c1.5 1.549 2.677 3.364 3.539 5.445.854 2.08 1.282 4.344 1.282 6.79 0 2.438-.428 4.701-1.282 6.782-.862 2.074-2.04 3.896-3.539 5.452a15.927 15.927 0 0 1-5.29 3.622c-2.025.862-4.204 1.282-6.53 1.282z" mask="url(#b)"/>
    </g>
</svg>
