<?xml version="1.0" encoding="UTF-8"?>
<svg width="282px" height="276px" viewBox="0 0 282 276" version="1.1" xmlns="http://www.w3.org/2000/svg" xmlns:xlink="http://www.w3.org/1999/xlink">
    <!-- Generator: Sketch 54.1 (76490) - https://sketchapp.com -->
    <title>Woodcliff-SVG</title>
    <desc>Created with Sketch.</desc>
    <g id="About-Us" stroke="none" stroke-width="1" fill="none" fill-rule="evenodd">
        <g id="About_v1_desktop" transform="translate(-997.000000, -612.000000)">
            <g id="marquee" transform="translate(140.000000, 600.000000)">
                <g id="Group">
                    <g id="Info">
                        <g id="Woodcliff-SVG" transform="translate(858.000000, 12.000000)">
                            <polygon id="Path" stroke="#94A5AF" stroke-width="2" stroke-linejoin="round" points="8 28 2 41 14 45 14 54 8 54 0 76 12 83 14 79 26 88 33 85 50 93 47 99 50 176 41 187 33 183 33 189 17 185 12 209 25 215 23 221 17 219 14 233 29 238 29 243 145 275 148 269 158 269 167 257 161 251 167 217 178 221 186 205 206 207 202 227 192 229 186 241 202 251 206 241 217 243 217 236 249 236 261 231 280 229 275 203 236 183 211 181 207 203 186 201 192 178 164 149 98 122 103 88 71 76 65 45 58 41 58 28 29 31"></polygon>
                            <path d="M69.5890002,195 L67.5350002,185.926 L69.4850002,185.926 L70.3430002,190.281 L70.8240002,192.803 L70.8630002,192.803 L71.4350002,190.281 L72.4360002,185.926 L74.5940002,185.926 L75.6080002,190.281 L76.1670002,192.803 L76.2060002,192.803 L76.6870002,190.281 L77.5580002,185.926 L79.4300002,185.926 L77.3240002,195 L75.0750002,195 L73.9310002,190.086 L73.4890002,188.097 L73.4500002,188.097 L72.9950002,190.086 L71.8510002,195 L69.5890002,195 Z M85.3190002,195.156 C84.7209972,195.156 84.1750026,195.056334 83.6810002,194.857 C83.1869977,194.657666 82.7666686,194.360835 82.4200002,193.9665 C82.0733318,193.572165 81.8046678,193.082503 81.6140002,192.4975 C81.4233325,191.912497 81.3280002,191.234337 81.3280002,190.463 C81.3280002,189.691663 81.4233325,189.013503 81.6140002,188.4285 C81.8046678,187.843497 82.0733318,187.353835 82.4200002,186.9595 C82.7666686,186.565165 83.1869977,186.268334 83.6810002,186.069 C84.1750026,185.869666 84.7209972,185.77 85.3190002,185.77 C85.9170031,185.77 86.4629977,185.869666 86.9570002,186.069 C87.4510026,186.268334 87.8713318,186.565165 88.2180002,186.9595 C88.5646686,187.353835 88.8333325,187.843497 89.0240002,188.4285 C89.2146678,189.013503 89.3100002,189.691663 89.3100002,190.463 C89.3100002,191.234337 89.2146678,191.912497 89.0240002,192.4975 C88.8333325,193.082503 88.5646686,193.572165 88.2180002,193.9665 C87.8713318,194.360835 87.4510026,194.657666 86.9570002,194.857 C86.4629977,195.056334 85.9170031,195.156 85.3190002,195.156 Z M85.3190002,193.401 C85.9170031,193.401 86.3828318,193.206002 86.7165002,192.816 C87.0501685,192.425998 87.2170002,191.867004 87.2170002,191.139 L87.2170002,189.787 C87.2170002,189.058996 87.0501685,188.500002 86.7165002,188.11 C86.3828318,187.719998 85.9170031,187.525 85.3190002,187.525 C84.7209972,187.525 84.2551685,187.719998 83.9215002,188.11 C83.5878318,188.500002 83.4210002,189.058996 83.4210002,189.787 L83.4210002,191.139 C83.4210002,191.867004 83.5878318,192.425998 83.9215002,192.816 C84.2551685,193.206002 84.7209972,193.401 85.3190002,193.401 Z M95.7710001,195.156 C95.1729971,195.156 94.6270026,195.056334 94.1330001,194.857 C93.6389976,194.657666 93.2186685,194.360835 92.8720001,193.9665 C92.5253317,193.572165 92.2566677,193.082503 92.0660001,192.4975 C91.8753325,191.912497 91.7800001,191.234337 91.7800001,190.463 C91.7800001,189.691663 91.8753325,189.013503 92.0660001,188.4285 C92.2566677,187.843497 92.5253317,187.353835 92.8720001,186.9595 C93.2186685,186.565165 93.6389976,186.268334 94.1330001,186.069 C94.6270026,185.869666 95.1729971,185.77 95.7710001,185.77 C96.3690031,185.77 96.9149976,185.869666 97.4090001,186.069 C97.9030026,186.268334 98.3233317,186.565165 98.6700001,186.9595 C99.0166685,187.353835 99.2853325,187.843497 99.4760001,188.4285 C99.6666677,189.013503 99.7620001,189.691663 99.7620001,190.463 C99.7620001,191.234337 99.6666677,191.912497 99.4760001,192.4975 C99.2853325,193.082503 99.0166685,193.572165 98.6700001,193.9665 C98.3233317,194.360835 97.9030026,194.657666 97.4090001,194.857 C96.9149976,195.056334 96.3690031,195.156 95.7710001,195.156 Z M95.7710001,193.401 C96.3690031,193.401 96.8348318,193.206002 97.1685001,192.816 C97.5021684,192.425998 97.6690001,191.867004 97.6690001,191.139 L97.6690001,189.787 C97.6690001,189.058996 97.5021684,188.500002 97.1685001,188.11 C96.8348318,187.719998 96.3690031,187.525 95.7710001,187.525 C95.1729971,187.525 94.7071684,187.719998 94.3735001,188.11 C94.0398318,188.500002 93.8730001,189.058996 93.8730001,189.787 L93.8730001,191.139 C93.8730001,191.867004 94.0398318,192.425998 94.3735001,192.816 C94.7071684,193.206002 95.1729971,193.401 95.7710001,193.401 Z M102.583,185.926 L106.002,185.926 C106.600003,185.926 107.145998,186.021332 107.64,186.212 C108.134003,186.402668 108.554332,186.686498 108.901,187.0635 C109.247668,187.440502 109.516332,187.91283 109.707,188.4805 C109.897668,189.04817 109.993,189.708996 109.993,190.463 C109.993,191.217004 109.897668,191.87783 109.707,192.4455 C109.516332,193.01317 109.247668,193.485498 108.901,193.8625 C108.554332,194.239502 108.134003,194.523332 107.64,194.714 C107.145998,194.904668 106.600003,195 106.002,195 L102.583,195 L102.583,185.926 Z M106.002,193.245 C106.591336,193.245 107.054998,193.080335 107.393,192.751 C107.731002,192.421665 107.9,191.893004 107.9,191.165 L107.9,189.761 C107.9,189.032996 107.731002,188.504335 107.393,188.175 C107.054998,187.845665 106.591336,187.681 106.002,187.681 L104.559,187.681 L104.559,193.245 L106.002,193.245 Z M116.48,195.156 C115.864664,195.156 115.310002,195.058501 114.816,194.8635 C114.321998,194.668499 113.901668,194.378169 113.555,193.9925 C113.208332,193.606831 112.939668,193.125836 112.749,192.5495 C112.558332,191.973164 112.463,191.299337 112.463,190.528 C112.463,189.76533 112.558332,189.08717 112.749,188.4935 C112.939668,187.89983 113.208332,187.401502 113.555,186.9985 C113.901668,186.595498 114.321998,186.290001 114.816,186.082 C115.310002,185.873999 115.864664,185.77 116.48,185.77 C117.320671,185.77 118.013997,185.941165 118.56,186.2835 C119.106003,186.625835 119.543665,187.16533 119.873,187.902 L118.17,188.786 C118.048666,188.404665 117.860168,188.099168 117.6045,187.8695 C117.348832,187.639832 116.974002,187.525 116.48,187.525 C115.89933,187.525 115.433502,187.713498 115.0825,188.0905 C114.731498,188.467502 114.556,189.015663 114.556,189.735 L114.556,191.191 C114.556,191.910337 114.731498,192.458498 115.0825,192.8355 C115.433502,193.212502 115.89933,193.401 116.48,193.401 C116.965336,193.401 117.353165,193.268835 117.6435,193.0045 C117.933835,192.740165 118.148333,192.421669 118.287,192.049 L119.899,192.985 C119.560998,193.678337 119.116836,194.213498 118.5665,194.5905 C118.016164,194.967502 117.320671,195.156 116.48,195.156 Z M122.447,195 L122.447,185.926 L124.423,185.926 L124.423,193.245 L127.881,193.245 L127.881,195 L122.447,195 Z M130.156,195 L130.156,193.427 L131.326,193.427 L131.326,187.499 L130.156,187.499 L130.156,185.926 L134.472,185.926 L134.472,187.499 L133.302,187.499 L133.302,193.427 L134.472,193.427 L134.472,195 L130.156,195 Z M137.293,195 L137.293,185.926 L143.312,185.926 L143.312,187.681 L139.269,187.681 L139.269,189.54 L142.714,189.54 L142.714,191.282 L139.269,191.282 L139.269,195 L137.293,195 Z M146.068,195 L146.068,185.926 L152.087,185.926 L152.087,187.681 L148.044,187.681 L148.044,189.54 L151.489,189.54 L151.489,191.282 L148.044,191.282 L148.044,195 L146.068,195 Z M78.4550002,212 L78.4550002,202.926 L80.4310002,202.926 L80.4310002,210.245 L83.8890002,210.245 L83.8890002,212 L78.4550002,212 Z M92.3260001,212 L91.6760001,209.842 L88.6470001,209.842 L87.9970001,212 L85.9950001,212 L88.9850001,202.926 L91.4290001,202.926 L94.3800001,212 L92.3260001,212 Z M90.1810001,204.72 L90.1160001,204.72 L89.1150001,208.165 L91.1950001,208.165 L90.1810001,204.72 Z M99.9700001,208.048 L98.7870001,209.478 L98.7870001,212 L96.8110001,212 L96.8110001,202.926 L98.7870001,202.926 L98.7870001,207.242 L98.8650001,207.242 L100.152,205.487 L102.193,202.926 L104.429,202.926 L101.374,206.657 L104.702,212 L102.375,212 L99.9700001,208.048 Z M107.029,212 L107.029,202.926 L113.204,202.926 L113.204,204.681 L109.005,204.681 L109.005,206.54 L112.606,206.54 L112.606,208.282 L109.005,208.282 L109.005,210.245 L113.204,210.245 L113.204,212 L107.029,212 Z M117.13,209.803 C117.520002,209.803 117.808166,209.900499 117.9945,210.0955 C118.180834,210.290501 118.274,210.539665 118.274,210.843 L118.274,211.103 C118.274,211.631669 118.146168,212.151664 117.8905,212.663 C117.634832,213.174336 117.299002,213.590332 116.883,213.911 L115.583,213.911 C115.886335,213.624999 116.146332,213.341168 116.363,213.0595 C116.579668,212.777832 116.744333,212.463668 116.857,212.117 C116.553665,212.065 116.332667,211.945834 116.194,211.7595 C116.055333,211.573166 115.986,211.354335 115.986,211.103 L115.986,210.843 C115.986,210.539665 116.079166,210.290501 116.2655,210.0955 C116.451834,209.900499 116.739998,209.803 117.13,209.803 Z M128.297,207.71 L127.426,205.89 L127.387,205.89 L127.387,212 L125.528,212 L125.528,202.926 L127.686,202.926 L130.169,207.216 L131.04,209.036 L131.079,209.036 L131.079,202.926 L132.938,202.926 L132.938,212 L130.78,212 L128.297,207.71 Z M141.427,202.926 L141.427,209.374 C141.427,209.790002 141.359834,210.169165 141.2255,210.5115 C141.091166,210.853835 140.894001,211.144165 140.634,211.3825 C140.373999,211.620835 140.059835,211.807166 139.6915,211.9415 C139.323165,212.075834 138.905002,212.143 138.437,212.143 C137.986331,212.143 137.589835,212.082334 137.2475,211.961 C136.905165,211.839666 136.610501,211.666334 136.3635,211.441 C136.116499,211.215666 135.915001,210.947002 135.759,210.635 C135.602999,210.322998 135.494667,209.976335 135.434,209.595 L137.28,209.231 C137.427334,210.019671 137.80433,210.414 138.411,210.414 C138.697001,210.414 138.941832,210.323001 139.1455,210.141 C139.349168,209.958999 139.451,209.673002 139.451,209.283 L139.451,204.512 L136.695,204.512 L136.695,202.926 L141.427,202.926 Z" id="WOODCLIFFLAKE,NJ" fill="#94A5AF" fill-rule="nonzero"></path>
                            <path d="M34.8115942,67.6851852 C48.9371981,44.7153231 56,29.2893972 56,21.4074074 C56,9.58442276 46.3741221,0 34.5,0 C22.6258779,0 13,9.58442276 13,21.4074074 C13,29.2893972 20.2705314,44.7153231 34.8115942,67.6851852 Z" id="Oval" fill="#50E3C2"></path>
                            <ellipse id="Oval-Copy" fill="#FFFFFF" cx="34.5144928" cy="21.6851852" rx="16.5144928" ry="16.6851852"></ellipse>
                            <g id="colonial-logo" transform="translate(27.000000, 10.000000)">
                                <g id="Group">
                                    <g id="Path">
                                        <path d="M9.46992325,4.34041722 L9.46992325,5.86453373 L9.46992325,9.1489421 C10.7608181,10.0794099 11.6059743,11.6106668 11.6059743,13.340085 C11.6059743,16.1709872 9.34411212,18.474011 6.56396062,18.474011 C6.50723291,18.474011 6.45107571,18.4717313 6.39476968,18.4697218 L6.39476968,22.8132922 C6.45107571,22.8141509 6.50738228,22.8155719 6.56396062,22.8155719 C11.6951378,22.8155719 15.8695367,18.5649426 15.8695367,13.340085 C15.8695373,9.1489421 13.1818487,5.58658219 9.46992325,4.34041722 Z" fill="#CC2027"></path>
                                        <path d="M9.30570769,0 C4.17453105,0 0,4.25062928 0,9.47578114 C0,13.666924 2.68781066,17.229284 6.39967549,18.4751552 L6.39967549,16.9510557 L6.39967549,13.666924 C5.10884209,12.7361608 4.26369455,11.204905 4.26369455,9.47578114 C4.26369455,6.64460223 6.52548717,4.34156091 9.30570769,4.34156091 C9.36242731,4.34156091 9.4185926,4.34414337 9.47476761,4.34585009 L9.47476761,0.00229652477 C9.41859261,0.00143868516 9.36208437,0 9.30570769,0 Z" fill="#0C2837"></path>
                                    </g>
                                </g>
                            </g>
                        </g>
                    </g>
                </g>
            </g>
        </g>
    </g>
</svg>